<?xml version="1.0" standalone="no"?>
<!DOCTYPE svg PUBLIC "-//W3C//DTD SVG 20010904//EN"
 "http://www.w3.org/TR/2001/REC-SVG-20010904/DTD/svg10.dtd">
<svg version="1.0" xmlns="http://www.w3.org/2000/svg"
 width="768.000000pt" height="768.000000pt" viewBox="0 0 768.000000 768.000000"
 preserveAspectRatio="xMidYMid meet">
<g transform="translate(0.000000,768.000000) scale(0.100000,-0.100000)"
fill="currentColor" stroke="none">
<path d="M6185 7414 c-96 -13 -201 -41 -225 -58 -8 -6 -33 -20 -55 -31 -22
-10 -47 -25 -56 -32 -20 -17 -90 -53 -102 -53 -4 0 -24 -12 -43 -27 -39 -29
-183 -113 -195 -113 -4 0 -14 -7 -22 -15 -8 -8 -46 -31 -83 -51 -38 -21 -82
-47 -99 -58 -42 -29 -79 -50 -165 -93 -41 -21 -83 -44 -92 -53 -9 -8 -47 -31
-85 -50 -37 -19 -89 -50 -115 -67 -26 -18 -50 -33 -54 -33 -3 0 -62 -34 -130
-75 -68 -42 -132 -79 -142 -82 -9 -4 -68 -37 -129 -75 -62 -37 -119 -68 -126
-68 -7 0 -31 -13 -53 -30 -21 -16 -44 -30 -51 -30 -6 0 -18 -6 -26 -14 -16
-16 -87 -56 -100 -56 -5 0 -24 -12 -43 -27 -36 -27 -183 -113 -193 -113 -4 0
-17 -8 -31 -17 -25 -19 -133 -81 -185 -108 -16 -8 -46 -25 -65 -36 -19 -12
-62 -36 -95 -54 -33 -18 -82 -48 -110 -67 -27 -18 -77 -47 -110 -63 -33 -16
-62 -32 -65 -36 -3 -3 -45 -29 -95 -58 -96 -56 -105 -61 -166 -93 -21 -11 -41
-24 -44 -28 -7 -12 -65 -40 -81 -40 -7 0 -19 -6 -26 -13 -16 -15 -110 -72
-193 -117 -33 -18 -89 -52 -126 -76 -36 -24 -68 -44 -72 -44 -3 0 -47 -25 -97
-55 -50 -30 -93 -55 -96 -55 -4 0 -43 -22 -88 -49 -44 -26 -88 -51 -96 -55 -8
-3 -33 -17 -55 -31 -22 -13 -46 -24 -53 -25 -7 0 -20 -6 -27 -12 -35 -32 -51
-44 -70 -54 -11 -6 -40 -22 -65 -36 -25 -13 -72 -41 -105 -63 -33 -21 -82 -49
-110 -62 -55 -26 -66 -33 -137 -80 -26 -17 -64 -37 -83 -43 -19 -6 -35 -15
-35 -20 0 -5 -14 -11 -30 -15 -17 -4 -30 -10 -30 -15 0 -5 -12 -15 -27 -23
-88 -45 -172 -92 -200 -113 -17 -13 -35 -24 -39 -24 -34 0 -240 -183 -265
-235 -6 -11 -21 -40 -34 -65 -13 -25 -24 -52 -24 -60 -1 -8 -8 -28 -16 -44 -8
-15 -15 -40 -15 -55 0 -14 -7 -39 -15 -55 -17 -32 -22 -251 -6 -260 5 -4 12
-25 16 -48 4 -23 21 -75 38 -117 70 -177 173 -281 392 -397 50 -26 104 -58
121 -71 17 -12 35 -23 40 -23 5 0 32 -15 60 -32 28 -18 66 -42 85 -52 19 -11
36 -23 39 -26 8 -11 83 -50 96 -50 6 0 23 -11 38 -25 15 -14 50 -36 79 -50 74
-37 154 -82 212 -119 28 -18 64 -39 80 -47 38 -19 214 -122 282 -166 28 -18
56 -33 62 -33 5 0 14 -6 18 -12 4 -7 31 -25 58 -39 28 -14 75 -41 105 -61 30
-19 65 -38 77 -42 12 -4 56 -28 98 -54 42 -26 90 -55 107 -64 17 -9 36 -22 41
-27 6 -6 16 -11 23 -11 6 0 38 -18 70 -39 33 -21 86 -53 119 -71 33 -18 90
-52 126 -76 37 -24 70 -44 74 -44 5 0 51 -26 104 -57 53 -32 112 -65 131 -74
33 -15 133 -78 156 -97 38 -33 84 -31 84 3 0 7 6 20 13 27 6 7 23 36 36 63 13
28 43 79 65 115 23 36 51 83 62 105 23 48 76 138 84 145 4 3 17 28 31 55 27
57 80 148 90 155 3 3 28 46 54 95 26 50 52 96 58 104 23 27 77 130 77 145 0 6
-14 17 -30 24 -17 8 -36 20 -43 27 -7 7 -44 29 -81 49 -38 21 -94 54 -125 74
-31 20 -79 48 -106 61 -28 14 -75 41 -105 62 -59 40 -146 90 -195 112 -16 8
-36 21 -44 30 -7 10 -17 17 -22 17 -4 0 -28 14 -52 30 -25 17 -49 30 -54 30
-9 0 -23 10 -70 50 -7 5 -17 10 -22 10 -6 0 -30 13 -54 30 -24 16 -55 34 -68
40 -13 6 -40 20 -59 32 -19 11 -57 32 -85 46 -27 14 -70 39 -95 56 -25 18 -72
48 -106 68 -85 52 -161 131 -196 206 -39 80 -47 188 -25 314 17 96 41 151 87
196 16 17 30 33 30 36 0 2 13 18 28 35 30 33 90 73 164 109 26 13 50 28 54 33
3 5 33 23 67 40 34 17 110 60 168 95 59 35 114 64 122 64 8 0 17 3 19 8 3 6
66 51 113 79 11 6 46 24 78 39 31 16 57 31 57 35 0 4 17 16 38 27 20 11 66 35
102 54 36 19 90 50 120 70 30 19 80 47 110 62 67 34 87 45 125 72 17 11 53 32
80 45 28 13 51 27 53 31 4 8 136 88 204 124 21 10 83 45 138 77 55 31 107 57
115 57 7 0 15 3 17 8 5 11 66 52 106 71 20 9 62 33 93 53 30 20 87 53 125 74
38 20 80 45 94 54 46 31 84 54 160 92 41 21 81 45 90 52 33 29 128 69 185 78
184 30 313 -7 439 -126 107 -100 139 -176 152 -363 10 -136 11 -135 -211 -252
-43 -24 -91 -51 -105 -60 -14 -10 -61 -37 -105 -60 -88 -47 -101 -54 -160 -91
-22 -14 -58 -34 -80 -45 -22 -11 -42 -22 -45 -25 -5 -5 -55 -38 -115 -76 -16
-10 -52 -29 -80 -43 -27 -13 -52 -27 -55 -31 -7 -10 -83 -53 -150 -86 -30 -14
-62 -32 -70 -39 -8 -7 -46 -30 -84 -50 -77 -41 -92 -50 -198 -116 -41 -26 -86
-50 -99 -54 -13 -4 -26 -11 -29 -14 -9 -12 -156 -98 -181 -106 -13 -4 -37 -18
-54 -30 -16 -12 -70 -44 -120 -70 -49 -26 -119 -66 -155 -90 -36 -23 -98 -59
-137 -80 -88 -45 -92 -61 -24 -93 26 -13 84 -47 127 -75 44 -28 101 -62 129
-75 27 -13 52 -27 55 -31 7 -10 96 -62 155 -90 28 -14 76 -41 107 -62 31 -20
67 -40 79 -44 32 -10 150 -83 172 -106 10 -11 27 -19 37 -19 11 0 20 -3 20 -7
0 -5 27 -21 60 -37 33 -16 68 -37 78 -45 10 -9 34 -24 53 -35 70 -38 105 -58
134 -76 17 -11 47 -28 67 -38 20 -11 52 -29 71 -41 19 -11 37 -18 40 -14 4 3
7 187 7 408 l0 402 71 42 c40 22 77 41 84 41 7 0 18 7 25 15 7 8 18 15 24 15
7 0 30 13 52 29 21 16 70 46 108 66 38 20 97 55 130 76 34 21 88 52 120 69 33
16 66 36 75 43 38 32 123 77 146 77 17 0 26 -7 30 -22 10 -42 -1 -1990 -12
-2047 -5 -30 -15 -57 -21 -59 -7 -2 -12 -12 -12 -23 0 -35 -44 -103 -113 -176
-38 -40 -79 -75 -90 -78 -12 -4 -35 -12 -52 -20 -106 -48 -235 -41 -350 18
-27 14 -70 35 -95 47 -25 11 -74 38 -109 60 -34 22 -66 40 -70 40 -11 0 -103
50 -158 86 -57 38 -73 42 -73 18 0 -18 -11 -38 -97 -185 -35 -59 -63 -111 -63
-115 0 -5 -14 -27 -30 -48 -17 -22 -30 -44 -30 -49 0 -6 -10 -24 -22 -41 -13
-17 -32 -49 -43 -71 -10 -22 -31 -56 -46 -75 -14 -19 -29 -45 -33 -57 -4 -13
-12 -23 -17 -23 -5 0 -9 -9 -9 -20 0 -11 -9 -28 -20 -37 -11 -10 -20 -23 -20
-30 0 -15 -60 -116 -72 -121 -4 -2 -8 -10 -8 -19 0 -16 -24 -64 -52 -102 -26
-35 -23 -44 27 -71 25 -14 45 -28 45 -31 0 -4 13 -10 30 -14 16 -4 30 -11 30
-16 0 -5 6 -9 13 -9 8 0 33 -13 55 -30 23 -16 46 -30 51 -30 5 0 14 -6 20 -14
6 -7 32 -21 58 -31 25 -10 65 -30 87 -45 23 -15 81 -48 129 -74 48 -25 108
-59 132 -76 24 -16 47 -30 51 -30 10 0 182 -100 186 -108 2 -4 28 -20 58 -35
65 -33 143 -77 150 -86 6 -7 95 -51 103 -51 7 0 160 -91 167 -100 3 -3 25 -14
50 -25 43 -19 131 -72 157 -95 7 -5 17 -10 23 -10 6 0 32 -9 58 -21 151 -66
166 -69 302 -69 124 0 165 8 247 45 17 8 35 15 40 15 30 0 143 71 204 128 66
61 169 200 169 226 0 6 6 20 14 31 7 11 21 58 30 104 16 77 17 308 16 3070 0
1723 -4 3011 -10 3046 -13 87 -22 129 -30 140 -4 6 -11 21 -15 34 -23 75 -118
198 -210 271 -62 49 -175 110 -205 110 -9 0 -20 4 -25 9 -14 12 -111 32 -128
26 -7 -3 -30 1 -50 10 -20 8 -40 14 -44 14 -4 -1 -48 -7 -98 -15z"/>
</g>
</svg>
